

[center]Another Fine Release Brought to you from - ZOMBiES                  
                                               
******************************************************************************************                              
                The Descendants 2011 REPACK SCREENER XviD - ZOMBiES                                                               
******************************************************************************************

[img]http://pokit.org/get/b25125669af05926d51c27368380bdde.jpg[/img]


Release Name : The Descendants 2011 REPACK SCREENER XviD - ZOMBiES                                                               
Rating : 8.0/10
Genre : Comedy, Drama
Stars : George Clooney, Shailene Woodley, Amara Miller, Nick Krause
Director : Alexander Payne
Writers : Alexander Payne, Nat Faxon
Release Date : 9 Dec 2011
Movie Runtime : 1 hr 55 mins
Rated Under : R
Movie Plot : A land baron tries to re-connect with his two daughters after his wife suffers a boating acciden

[img]http://pokit.org/get/92058fa0f12144260526be49496883ff.jpg[/img]



Video
ID                                       : 0
Format                                   : xvid
Codec ID                                 : xvid
Duration                                 : 1h 55mn
Bit rate                                 : 713 Kbps
Width                                    : 624 pixels
Height                                   : 336 pixels
Display aspect ratio                     : 1.857
Frame rate                               : 23.976 fps
Bits/(Pixel*Frame)                       : 0.142
Stream size                              : 589 MiB (78%)

Audio
ID                                       : 1
Format                                   : MPEG Audio
Format version                           : Version 1
Format profile                           : Layer 3
Mode                                     : Joint stereo
Mode extension                           : MS Stereo
Codec ID                                 : 55
Codec ID/Hint                            : MP3
Duration                                 : 1h 55mn
Bit rate mode                            : Constant
Bit rate                                 : 32.0 Kbps
Channel(s)                               : 2 channels
Sampling rate                            : 44.1 KHz
Compression mode                         : Lossy
Stream size                              : 153 MiB (20%)
Alignment                                : Aligned on interleaves
Interleave, duration                     : 26 ms (0.63 video frame)
Interleave, preload duration             : 89 ms
Writing library                          : LAME3.98.4

Notes : This isn't our best rip we did about 5 rips of this movie all oos only 1 was good and it was flv so we convereted to avi
but mehh best we can get so enjoy it or wait for retail.

[img]http://img825.imageshack.us/img825/401/znkhy.jpg[/img]
[img]http://img851.imageshack.us/img851/1116/lv6lj.jpg[/img]
[img]http://img26.imageshack.us/img26/4345/mx0ya.jpg[/img]

[/center]